<?xml version="1.0" encoding="UTF-8"?>
<svg width="970px" height="264px" viewBox="0 0 970 264" version="1.1" xmlns="http://www.w3.org/2000/svg" xmlns:xlink="http://www.w3.org/1999/xlink">
    <!-- Generator: Sketch 52.2 (67145) - http://www.bohemiancoding.com/sketch -->
    <title>Group</title>
    <desc>Created with Sketch.</desc>
    <g id="Page-1" stroke="none" stroke-width="1" fill="none" fill-rule="evenodd">
        <g id="Desktop-HD-Copy-15" transform="translate(-114.000000, -97.000000)">
            <g id="Group" transform="translate(58.000000, 46.000000)">
                <g id="Himal_EPS_Complatible-01" transform="translate(41.000000, 27.000000)">
                    <path d="M982.922026,175.544571 L980.63057,226.943786 C968.980939,226.943786 950.861151,226.943786 926.237752,226.943786 L860.125611,226.943786 C838.362351,226.943786 823.860945,226.943786 816.613029,226.943786 L816.613029,218.876357 C825.009461,218.673 831.156251,217.528071 835.072913,215.433214 C838.975636,213.327214 841.417626,210.630643 842.373794,207.326786 C843.31881,204.034071 843.812226,196.295357 843.812226,184.105071 L843.812226,69.8657143 C843.812226,57.6754286 843.31881,49.9283571 842.373794,46.6300714 C841.417626,43.3373571 838.975636,40.638 835.072913,38.5375714 C831.156251,36.4371429 825.009461,35.2866429 816.613029,35.0888571 L816.613029,26.4225 C831.869892,27.2164286 846.758783,27.6147857 861.260189,27.6147857 C875.953944,27.6147857 890.940403,27.2164286 906.208416,26.4225 L906.208416,35.0888571 C897.226576,35.49 891.227532,36.5847857 888.172257,38.376 C883.968466,40.5683571 881.395456,43.3095 880.436501,46.5966429 C879.491484,49.881 879.009219,57.7032857 879.009219,70.0523571 L879.009219,175.544571 C879.009219,193.529143 881.395456,205.101 886.173505,210.254571 C890.940403,215.402571 901.717496,217.982143 918.507571,217.982143 C937.781451,217.982143 951.187307,215.196429 958.73629,209.6445 C966.268546,204.089786 971.841078,192.726857 975.470611,175.544571 L982.922026,175.544571" id="Fill-2" fill="#D8232A"></path>
                    <path d="M808.205447,226.943786 C790.838327,226.236214 775.949436,225.882429 763.5555,225.882429 C750.760142,225.882429 735.589697,226.236214 718.030228,226.943786 L718.030228,219.5115 C725.099733,219.333214 730.056192,218.895857 732.919119,218.182714 C738.639397,216.580929 741.410331,213.488786 741.229133,208.875643 C741.025634,203.2095 738.558555,194.710286 733.808382,183.380786 L726.030812,164.791714 L658.496965,164.791714 L655.01239,172.747714 C648.182624,188.690357 644.759377,199.936286 644.759377,206.493857 C644.759377,210.917571 646.426398,214.065429 649.77159,215.929071 C653.100056,217.778786 659.358352,218.976643 668.518602,219.5115 L668.518602,226.943786 C656.303077,226.236214 645.238855,225.882429 635.323149,225.882429 C625.585853,225.882429 614.326495,226.236214 601.533924,226.943786 L601.533924,219.5115 C611.466356,218.444571 618.708696,215.488929 623.297185,210.613929 C627.871734,205.741714 633.979497,194.6295 641.609322,177.280071 L699.430962,45.0171429 L711.169797,45.0171429 L772.991729,186.840643 C778.143324,198.710571 781.195812,205.524429 782.154767,207.290571 C783.113722,209.070643 784.825345,210.920357 787.303574,212.870357 C791.315017,216.057214 798.286954,218.266286 808.205447,219.5115 L808.205447,226.943786 Z M722.044458,154.972071 L692.818633,83.4516429 L662.480531,154.972071 L722.044458,154.972071 Z" id="Fill-3" fill="#D8232A"></path>
                    <polygon id="Fill-4" fill="#D8232A" points="676.806315 35.5150714 732.946996 35.5150714 732.946996 24.5449286 676.806315 24.5449286"></polygon>
                    <path d="M593.318691,35.0888571 C590.452977,35.685 588.342718,35.9858571 587.01858,35.9858571 C575.566873,37.5792857 568.594936,42.4626429 566.116707,50.6275714 C564.78978,55.0150714 564.115167,63.9822857 564.115167,77.5236429 L564.115167,183.612 C564.115167,195.763286 564.597432,203.4825 565.556387,206.769643 C566.501404,210.059571 569.071626,212.8035 573.278205,214.998643 C576.896587,216.984857 582.906782,218.085214 591.303213,218.277429 L591.303213,226.943786 C573.743744,226.149857 558.774011,225.757071 546.368924,225.757071 C533.590292,225.757071 518.701401,226.149857 501.718977,226.943786 L501.718977,218.277429 C510.112621,218.085214 516.264986,216.940286 520.17886,214.845429 C524.084372,212.753357 526.523574,210.059571 527.479742,206.769643 C528.424758,203.4825 528.904236,195.763286 528.904236,183.612 L528.904236,60.7870714 L461.066534,224.556429 L453.916187,224.556429 L386.652743,60.7731429 L386.652743,173.238 C386.652743,190.935643 388.319764,202.719214 391.662168,208.580357 C394.993421,214.452643 402.107529,217.887429 412.984978,218.876357 L412.984978,226.943786 C401.778585,226.149857 391.614778,225.757071 382.49913,225.757071 C373.573043,225.757071 363.314455,226.149857 351.728941,226.943786 L351.728941,218.876357 C352.67117,218.673 353.800172,218.486357 355.124311,218.277429 C364.557752,217.090714 370.59861,214.0125 373.241312,209.028857 C375.881226,204.059143 377.205364,193.314643 377.205364,176.812071 L377.205364,63.1298571 C377.205364,55.9761429 376.962838,51.402 376.488936,49.4074286 C376.009458,47.4184286 374.724347,45.2316429 372.625239,42.8415 C369.188054,39.0640714 363.559769,36.777 355.734808,35.9858571 C354.402307,35.5875 352.108063,35.2866429 348.866014,35.0888571 L348.866014,26.4225 C360.47383,27.2164286 370.843924,27.6147857 379.976298,27.6147857 C386.25132,27.6147857 396.236718,27.2442857 409.940853,26.5032857 L471.277732,175.073786 L531.546937,26.5785 C545.203683,27.2721429 555.545901,27.6147857 562.568016,27.6147857 C571.101042,27.6147857 581.34848,27.2164286 593.318691,26.4225 L593.318691,35.0888571" id="Fill-5" fill="#D8232A"></path>
                    <path d="M343.418927,226.943786 C325.101215,226.149857 310.220686,225.757071 298.76898,225.757071 C286.932576,225.757071 271.95448,226.149857 253.829116,226.943786 L253.829116,218.277429 C262.22276,218.085214 268.377913,216.940286 272.291787,214.845429 C276.200086,212.753357 278.633713,210.059571 279.58988,206.769643 C280.54326,203.4825 281.022738,195.763286 281.022738,183.612 L281.022738,69.7542857 C281.022738,57.603 280.54326,49.881 279.58988,46.5966429 C278.633713,43.3095 276.200086,40.6185 272.291787,38.5236429 C268.377913,36.4343571 262.22276,35.2866429 253.829116,35.0888571 L253.829116,26.4225 C271.190661,27.2164286 285.981984,27.6147857 298.200297,27.6147857 C310.599808,27.6147857 325.675472,27.2164286 343.418927,26.4225 L343.418927,35.0888571 C335.025283,35.2866429 329.012301,36.3842143 325.388344,38.376 C321.190128,40.5683571 318.611543,43.3095 317.660951,46.5966429 C316.701996,49.881 316.225306,57.603 316.225306,69.7542857 L316.225306,183.612 C316.225306,195.763286 316.701996,203.4825 317.660951,206.769643 C318.611543,210.059571 321.190128,212.8035 325.388344,214.998643 C329.012301,216.984857 335.025283,218.085214 343.418927,218.277429 L343.418927,226.943786" id="Fill-6" fill="#D8232A"></path>
                    <path d="M242.868038,226.943786 C226.649433,226.149857 211.855322,225.757071 198.496857,225.757071 C184.572496,225.757071 169.496832,226.149857 153.275439,226.943786 L153.275439,218.277429 C161.669083,218.085214 167.824236,216.940286 171.735322,214.845429 C175.646409,212.753357 178.082824,210.059571 179.036203,206.769643 C179.989583,203.4825 180.466273,195.763286 180.466273,183.612 L180.466273,130.120714 L82.8591523,130.120714 L82.8591523,183.612 C82.8591523,195.763286 83.3358421,203.4825 84.2920094,206.769643 C85.2453891,210.059571 87.8211868,212.8035 92.0221901,214.998643 C95.6433602,216.984857 101.65913,218.085214 110.055561,218.277429 L110.055561,226.943786 C93.4466843,226.149857 78.5661562,225.757071 65.4000389,225.757071 C51.656876,225.757071 36.6759922,226.149857 20.4601751,226.943786 L20.4601751,218.277429 C28.8566064,218.085214 35.006184,216.940286 38.9256337,214.845429 C42.8311451,212.753357 45.2647721,210.059571 46.2209394,206.769643 C47.1743191,203.4825 47.6565842,195.763286 47.6565842,183.612 L47.6565842,69.7542857 C47.6565842,57.603 47.1743191,49.881 46.2209394,46.5966429 C45.2647721,43.3095 42.8311451,40.6185 38.9256337,38.5236429 C35.006184,36.4343571 28.8566064,35.2866429 20.4601751,35.0888571 L20.4601751,26.4225 C36.6759922,27.2164286 51.4673152,27.6147857 64.8313563,27.6147857 C78.3765953,27.6147857 93.4466843,27.2164286 110.055561,26.4225 L110.055561,35.0888571 C101.65913,35.2866429 95.6433602,36.3842143 92.0221901,38.376 C87.8211868,40.5683571 85.2453891,43.3095 84.2920094,46.5966429 C83.3358421,49.881 82.8591523,57.603 82.8591523,69.7542857 L82.8591523,118.763357 L180.466273,118.763357 L180.466273,69.7542857 C180.466273,57.603 179.989583,49.881 179.036203,46.5966429 C178.082824,43.3095 175.646409,40.6185 171.735322,38.5236429 C167.824236,36.4343571 161.669083,35.2866429 153.275439,35.0888571 L153.275439,26.4225 C169.496832,27.2164286 184.374572,27.6147857 197.930962,27.6147857 C211.281064,27.6147857 226.267524,27.2164286 242.868038,26.4225 L242.868038,35.0888571 C234.468819,35.2866429 228.455837,36.3842143 224.834666,38.376 C220.636451,40.5683571 218.060653,43.3095 217.110061,46.5966429 C216.148319,49.881 215.671629,57.603 215.671629,69.7542857 L215.671629,183.612 C215.671629,195.763286 216.148319,203.4825 217.110061,206.769643 C218.060653,210.059571 220.636451,212.8035 224.834666,214.998643 C228.455837,216.984857 234.468819,218.085214 242.868038,218.277429 L242.868038,226.943786" id="Fill-7" fill="#D8232A"></path>
                    <path d="M22.5063174,273.169929 C22.5063174,279.331929 27.0474152,281.741571 32.6561868,281.741571 C38.8197026,281.741571 41.119522,278.719071 41.119522,275.696571 C41.119522,272.612786 39.4357754,271.3815 37.8105698,270.765857 C35.006184,269.696143 31.3627126,268.974643 25.8710228,267.453643 C19.027318,265.606714 17.0090523,261.458786 17.0090523,257.313643 C17.0090523,249.3075 24.410289,245.549571 31.6414786,245.549571 C39.9960951,245.549571 47.0070595,249.976071 47.0070595,258.324857 L39.9960951,258.324857 C39.6615759,253.1685 36.1853641,251.265857 31.3627126,251.265857 C28.1123013,251.265857 24.017229,252.441429 24.017229,256.477929 C24.017229,259.274786 25.9239883,260.845929 28.7841273,261.6315 C29.4029878,261.801429 38.259383,264.096857 40.3334019,264.709714 C45.6048666,266.275286 48.1276987,270.765857 48.1276987,274.905429 C48.1276987,283.869857 40.1661423,287.455071 32.2073735,287.455071 C23.066637,287.455071 15.6681879,283.087071 15.495353,273.169929 L22.5063174,273.169929" id="Fill-8" fill="#343434"></path>
                    <path d="M158.697437,266.500929 C158.697437,277.936286 151.519213,287.455071 139.521126,287.455071 C127.52025,287.455071 120.344814,277.936286 120.344814,266.500929 C120.344814,255.071143 127.52025,245.549571 139.521126,245.549571 C151.519213,245.549571 158.697437,255.071143 158.697437,266.500929 Z M127.352991,266.500929 C127.352991,274.178357 130.937921,281.741571 139.521126,281.741571 C148.098755,281.741571 151.686473,274.178357 151.686473,266.500929 C151.686473,258.831857 148.098755,251.265857 139.521126,251.265857 C130.937921,251.265857 127.352991,258.831857 127.352991,266.500929 Z" id="Fill-9" fill="#343434"></path>
                    <path d="M232.877065,246.4995 L239.882454,246.4995 L239.882454,269.807571 C239.882454,275.184 240.219761,281.4045 249.299169,281.4045 C258.384152,281.4045 258.718671,275.184 258.718671,269.807571 L258.718671,246.4995 L265.729636,246.4995 L265.729636,272.108571 C265.729636,282.354429 259.170272,287.455071 249.299169,287.455071 C239.430853,287.455071 232.877065,282.354429 232.877065,272.108571 L232.877065,246.4995" id="Fill-10" fill="#343434"></path>
                    <polyline id="Fill-11" fill="#343434" points="338.222729 246.4995 370.63485 246.4995 370.63485 252.550071 357.903608 252.550071 357.903608 286.507929 350.901006 286.507929 350.901006 252.550071 338.222729 252.550071 338.222729 246.4995"></polyline>
                    <polyline id="Fill-12" fill="#343434" points="443.350956 246.4995 450.353558 246.4995 450.353558 262.417071 468.579277 262.417071 468.579277 246.4995 475.590242 246.4995 475.590242 286.507929 468.579277 286.507929 468.579277 268.470429 450.353558 268.470429 450.353558 286.507929 443.350956 286.507929 443.350956 246.4995"></polyline>
                    <path d="M562.938774,246.4995 L570.404127,246.4995 L585.822674,286.507929 L578.307143,286.507929 L574.552165,275.911071 L558.570511,275.911071 L554.818321,286.507929 L547.587132,286.507929 L562.938774,246.4995 Z M560.474483,270.598714 L572.703947,270.598714 L566.704903,253.394143 L566.526492,253.394143 L560.474483,270.598714 Z" id="Fill-13" fill="#343434"></path>
                    <path d="M662.466593,273.169929 C662.466593,279.331929 667.013266,281.741571 672.616462,281.741571 C678.779978,281.741571 681.079797,278.719071 681.079797,275.696571 C681.079797,272.612786 679.393263,271.3815 677.779208,270.765857 C674.972034,269.696143 671.328563,268.974643 665.834086,267.453643 C658.987593,265.606714 656.974903,261.458786 656.974903,257.313643 C656.974903,249.3075 664.370564,245.549571 671.601754,245.549571 C679.959158,245.549571 686.967335,249.976071 686.967335,258.324857 L679.959158,258.324857 C679.630214,253.1685 676.148427,251.265857 671.328563,251.265857 C668.069789,251.265857 663.985867,252.441429 663.985867,256.477929 C663.985867,259.274786 665.889839,260.845929 668.752765,261.6315 C669.368838,261.801429 678.219658,264.096857 680.30204,264.709714 C685.570717,266.275286 688.093549,270.765857 688.093549,274.905429 C688.093549,283.869857 680.131993,287.455071 672.162073,287.455071 C663.0297,287.455071 655.631251,283.087071 655.455628,273.169929 L662.466593,273.169929" id="Fill-14" fill="#343434"></path>
                    <polygon id="Fill-15" fill="#343434" points="762.432073 286.505143 769.445825 286.505143 769.445825 246.4995 762.432073 246.4995"></polygon>
                    <path d="M856.961618,246.4995 L864.410245,246.4995 L879.831579,286.507929 L872.31326,286.507929 L868.56107,275.911071 L852.576629,275.911071 L848.827226,286.507929 L841.590461,286.507929 L856.961618,246.4995 Z M854.494539,270.598714 L866.710064,270.598714 L860.716595,253.394143 L860.549336,253.394143 L854.494539,270.598714 Z" id="Fill-16" fill="#343434"></path>
                    <polyline id="Fill-17" fill="#343434" points="951.597093 246.4995 958.992754 246.4995 977.277015 275.975143 977.385734 275.975143 977.385734 246.4995 984.056604 246.4995 984.056604 286.507929 976.660942 286.507929 958.432435 257.093571 958.267963 257.093571 958.267963 286.507929 951.597093 286.507929 951.597093 246.4995"></polyline>
                </g>
            </g>
        </g>
    </g>
</svg>