<svg width="305" height="304" viewBox="0 0 305 304" fill="none" xmlns="http://www.w3.org/2000/svg">
<rect width="304" height="304" fill="#0043EF"/>
<g clip-path="url(#clip0)">
<path d="M219.776 132.997C221.426 131.378 222.252 129.134 222.252 126.264C222.252 123.303 221.438 121.036 219.811 119.462C218.182 117.889 216.089 117.102 213.531 117.102C210.973 117.102 208.892 117.888 207.287 119.462C205.682 121.035 204.88 123.302 204.88 126.264C204.88 129.134 205.694 131.378 207.322 132.997C208.949 134.618 211.019 135.427 213.531 135.427C216.043 135.427 218.124 134.617 219.776 132.997H219.776ZM203.206 143.86C200.089 142.078 197.492 139.518 195.671 136.433C193.844 133.333 192.88 129.805 192.88 126.212C192.88 122.619 193.844 119.09 195.671 115.991C197.516 112.915 200.132 110.369 203.262 108.601C206.393 106.832 209.931 105.903 213.531 105.903C217.131 105.903 220.67 106.832 223.8 108.601C226.931 110.369 229.547 112.915 231.392 115.991C233.219 119.09 234.183 122.619 234.183 126.212C234.183 129.805 233.219 133.334 231.392 136.433C229.571 139.518 226.974 142.077 223.857 143.86C220.715 145.657 217.155 146.602 213.531 146.602C209.908 146.602 206.348 145.657 203.206 143.86" fill="white"/>
<path d="M53.9592 168.616H66.3077L71.8893 190.134L77.401 168.616H87.5869L93.0986 190.134L98.54 168.616H110.959L100.424 207.279H88.075L82.4938 185.205L76.9122 207.279H64.5637L53.9592 168.616Z" fill="white"/>
<path d="M137.154 194.715C138.805 193.096 139.63 190.852 139.631 187.982C139.631 185.021 138.817 182.753 137.189 181.18C135.56 179.607 133.467 178.82 130.91 178.819C128.351 178.819 126.27 179.606 124.666 181.18C123.061 182.753 122.259 185.021 122.259 187.982C122.259 190.852 123.073 193.096 124.701 194.715C126.328 196.336 128.398 197.145 130.91 197.145C133.422 197.145 135.503 196.335 137.154 194.715ZM120.584 205.578C117.467 203.796 114.87 201.236 113.05 198.151C111.222 195.052 110.259 191.523 110.259 187.93C110.259 184.337 111.222 180.808 113.05 177.709C114.895 174.633 117.511 172.087 120.641 170.319C123.772 168.551 127.31 167.621 130.91 167.621C134.51 167.621 138.048 168.551 141.179 170.319C144.31 172.087 146.925 174.633 148.77 177.709C150.598 180.808 151.561 184.337 151.561 187.93C151.561 191.523 150.598 195.052 148.77 198.151C146.949 201.235 144.352 203.795 141.235 205.578C138.094 207.375 134.534 208.32 130.91 208.32C127.286 208.32 123.726 207.375 120.584 205.578Z" fill="white"/>
<path d="M155.255 168.616H178.627V179.722H167.255V207.279H155.255V168.616Z" fill="white"/>
<path d="M194.181 157.718H182.32V207.279H194.181V157.718Z" fill="white"/>
<path d="M224.906 194.68C226.467 192.992 227.247 190.759 227.246 187.982C227.246 185.205 226.466 182.961 224.906 181.249C223.346 179.537 221.196 178.681 218.454 178.68C215.712 178.68 213.597 179.525 212.108 181.214C210.619 182.903 209.874 185.159 209.874 187.982C209.874 190.758 210.619 192.991 212.108 194.68C213.597 196.37 215.712 197.214 218.454 197.214C221.195 197.214 223.346 196.369 224.906 194.68V194.68ZM206.201 205.613C203.56 203.73 201.459 201.194 200.106 198.255C198.635 195.021 197.874 191.513 197.874 187.964C197.874 184.415 198.635 180.907 200.106 177.674C201.452 174.721 203.554 172.172 206.201 170.281C208.707 168.499 211.715 167.551 214.795 167.574C217.455 167.539 220.076 168.21 222.389 169.518C224.483 170.683 226.176 172.448 227.246 174.585V157.717L239.176 157.718V207.278L227.246 207.278V201.761C225.648 204.168 224.243 205.833 222.09 206.828C219.797 207.851 217.307 208.36 214.795 208.32C211.715 208.343 208.707 207.395 206.201 205.613" fill="white"/>
<path d="M263.336 106.898V96H254.196C251.236 96 248.396 97.1701 246.303 99.253C244.21 101.336 243.034 104.161 243.034 107.106V113.77H237.876V124.876H243.034V145.561H255.034V124.876H263.336V113.77H255.034V106.898H263.336Z" fill="white"/>
<path d="M41 106.898V145.561H53.0002V118.004H64.3718V106.898H41Z" fill="white"/>
<path d="M148.58 118.004H143.42V106.898H148.58V96H160.51V106.898H168.881V118.004H160.51V133.414H168.881V145.561H159.743C156.782 145.561 153.943 144.391 151.849 142.308C149.756 140.225 148.58 137.4 148.58 134.455V118.004Z" fill="white"/>
<path d="M86.1529 114.98C90.5696 114.98 94.15 118.167 94.15 122.099H78.1556C78.1556 118.167 81.736 114.98 86.153 114.98H86.1529ZM93.2207 133.414C91.8778 135.666 89.2175 137.202 86.153 137.202C81.736 137.202 78.1556 134.015 78.1556 130.082L106.77 130.082C106.86 129.064 106.905 128.046 106.905 127.028C106.946 123.304 106.016 119.632 104.206 116.373C102.449 113.202 99.875 110.554 96.7481 108.702C93.5818 106.807 89.9493 105.822 86.2543 105.857C82.5917 105.815 78.9832 106.737 75.7937 108.529C72.6794 110.282 70.0925 112.831 68.3008 115.912C66.5091 118.994 65.5778 122.496 65.6031 126.056C65.5712 129.684 66.5147 133.255 68.3361 136.398C70.1403 139.531 72.752 142.129 75.9017 143.922C79.0515 145.716 82.6253 146.641 86.2543 146.602C91.1132 146.602 95.3423 145.283 98.9417 142.646C102.126 140.348 104.512 137.122 105.769 133.414L93.2207 133.414Z" fill="white"/>
<path d="M133.032 123.031C131.169 122.375 129.259 121.861 127.319 121.492C125.279 121.087 123.79 120.576 122.894 119.97C122.533 119.764 122.233 119.466 122.026 119.106C121.819 118.747 121.711 118.34 121.714 117.925C121.706 117.524 121.79 117.125 121.959 116.76C122.128 116.395 122.378 116.072 122.69 115.816C123.395 115.22 124.297 114.906 125.222 114.935C127.613 114.935 128.826 115.894 129.073 118.004H141.574C141.497 116.33 141.053 114.693 140.272 113.208C139.492 111.723 138.394 110.426 137.056 109.408C134.08 107.052 130.11 105.857 125.255 105.857C120.724 105.857 116.995 107.049 114.171 109.4C112.8 110.492 111.699 111.882 110.952 113.464C110.206 115.046 109.834 116.777 109.865 118.524C109.833 120.488 110.36 122.421 111.386 124.1C112.484 125.798 113.981 127.205 115.747 128.199C117.959 129.43 120.343 130.326 122.821 130.857C125.525 131.495 127.37 132.108 128.303 132.68C129.114 133.178 129.492 133.778 129.492 134.569C129.507 134.964 129.432 135.358 129.272 135.72C129.112 136.082 128.871 136.403 128.568 136.659C127.929 137.21 126.914 137.489 125.553 137.489C124.046 137.489 122.804 137.125 121.863 136.406C121.042 135.78 120.584 134.769 120.482 133.414H108.754C108.839 135.69 109.572 137.896 110.867 139.775C112.342 141.938 114.375 143.667 116.753 144.779C119.409 146.026 122.318 146.65 125.255 146.602C129.994 146.602 133.921 145.458 136.927 143.203C139.988 140.904 141.54 137.881 141.54 134.217C141.54 128.857 138.678 125.094 133.032 123.03" fill="white"/>
</g>
<defs>
<clipPath id="clip0">
<rect width="222.336" height="112.32" fill="white" transform="translate(41 96)"/>
</clipPath>
</defs>
</svg>
