<svg width="546" height="153" viewBox="0 0 546 153" fill="none" xmlns="http://www.w3.org/2000/svg">
<path d="M525.606 59.1554C527.617 56.9688 528.623 54.0774 528.622 50.4814C528.622 46.8863 527.617 43.9802 525.606 41.763C523.595 39.5466 520.823 38.438 517.289 38.4373C513.755 38.4373 511.028 39.531 509.109 41.7183C507.19 43.9057 506.231 46.8268 506.23 50.4815C506.23 54.0771 507.19 56.9684 509.109 59.1556C511.028 61.3432 513.755 62.4367 517.289 62.436C520.822 62.436 523.594 61.3425 525.606 59.1556V59.1554ZM501.496 73.3118C498.091 70.8741 495.383 67.5897 493.639 63.784C491.689 59.6235 490.705 55.0758 490.762 50.4815C490.709 45.8732 491.692 41.3116 493.639 37.1341C495.374 33.3106 498.083 30.0096 501.496 27.5616C504.725 25.2534 508.603 24.0264 512.573 24.0566C516.001 24.011 519.38 24.8796 522.361 26.5729C525.061 28.0814 527.242 30.368 528.622 33.1344V11.2925L544 11.293V75.4686L528.622 75.4681V68.3246C526.562 71.4414 524.751 73.5966 521.975 74.8847C519.021 76.21 515.811 76.8697 512.573 76.8172C508.603 76.8471 504.725 75.62 501.496 73.3117" fill="#0ECCA7"/>
<path d="M486.001 11.2935H470.714V75.4691H486.001V11.2935Z" fill="#0ECCA7"/>
<path d="M435.827 25.4043H465.953V39.7856H451.295V75.4684H435.827V25.4043Z" fill="#0ECCA7"/>
<path d="M412.495 59.2003C414.622 57.1037 415.687 54.1976 415.688 50.4819C415.688 46.6477 414.638 43.7115 412.54 41.6735C410.441 39.6368 407.743 38.6181 404.447 38.6175C401.148 38.6175 398.465 39.6362 396.398 41.6735C394.33 43.7111 393.295 46.6473 393.296 50.4819C393.296 54.1978 394.345 57.1039 396.443 59.2003C398.54 61.2988 401.208 62.3475 404.447 62.3464C407.684 62.3464 410.367 61.2977 412.495 59.2003H412.495ZM391.137 73.267C387.119 70.9591 383.772 67.6444 381.425 63.6496C379.07 59.6362 377.828 55.0675 377.828 50.4145C377.828 45.7615 379.07 41.1927 381.425 37.1794C383.804 33.197 387.175 29.8997 391.211 27.6101C395.246 25.3204 399.807 24.1167 404.447 24.1167C409.087 24.1167 413.648 25.3204 417.683 27.6101C421.719 29.8997 425.09 33.197 427.469 37.1794C429.824 41.1927 431.066 45.7615 431.066 50.4145C431.066 55.0675 429.824 59.6362 427.469 63.6496C425.121 67.6436 421.774 70.9581 417.756 73.267C413.707 75.5931 409.118 76.8172 404.447 76.8172C399.776 76.8172 395.187 75.5931 391.137 73.267" fill="#0ECCA7"/>
<path d="M305.258 25.4043H321.175L328.369 53.2676L335.474 25.4043H348.603L355.708 53.2676L362.722 25.4043H378.73L365.15 75.4684H349.233L342.038 46.8862L334.844 75.4684H318.927L305.258 25.4043Z" fill="#0ECCA7"/>
<path d="M281.453 25.4045V11.293H269.672C265.856 11.293 262.196 12.8082 259.498 15.5052C256.799 18.2022 255.283 21.8601 255.283 25.6742V34.3024H248.635V48.6836H255.283V75.4686H270.751V48.6838H281.453V34.3024H270.751V25.4045H281.453Z" fill="#0ECCA7"/>
<path d="M225.305 59.2001C227.432 57.1036 228.496 54.1974 228.497 50.4818C228.497 46.6475 227.448 43.7114 225.35 41.6733C223.25 39.6366 220.552 38.618 217.256 38.6173C213.958 38.6173 211.275 39.636 209.207 41.6733C207.139 43.7106 206.105 46.6468 206.105 50.4818C206.105 54.1976 207.154 57.1037 209.252 59.2001C211.35 61.2986 214.018 62.3473 217.256 62.3462C220.493 62.3462 223.176 61.2975 225.305 59.2001ZM203.946 73.2668C199.928 70.9588 196.581 67.6441 194.234 63.6494C191.879 59.636 190.637 55.0672 190.637 50.4143C190.637 45.7614 191.879 41.1927 194.234 37.1792C196.612 33.1968 199.984 29.8994 204.019 27.6097C208.055 25.3199 212.615 24.1162 217.256 24.1162C221.896 24.1162 226.457 25.3199 230.492 27.6097C234.528 29.8994 237.899 33.1968 240.277 37.1792C242.633 41.1926 243.875 45.7613 243.875 50.4143C243.875 55.0673 242.633 59.6361 240.277 63.6494C237.93 67.6436 234.583 70.9581 230.565 73.2668C226.516 75.5929 221.927 76.8171 217.256 76.8171C212.585 76.8171 207.996 75.5929 203.947 73.2668" fill="#0ECCA7"/>
<path d="M140.669 39.7857H134.018V25.4045H140.669V11.293H156.046V25.4045H166.836V39.7862H156.046V59.7397H166.836V75.4695H155.057C151.241 75.4695 147.581 73.9543 144.883 71.2573C142.185 68.5603 140.669 64.9024 140.669 61.0882V39.7857Z" fill="#0ECCA7"/>
<path d="M120.628 46.294C118.227 45.4452 115.765 44.7791 113.263 44.3011C110.634 43.7781 108.715 43.1153 107.56 42.331C107.094 42.0637 106.709 41.6778 106.441 41.2126C106.174 40.7475 106.035 40.2198 106.039 39.6835C106.029 39.163 106.137 38.6469 106.355 38.174C106.573 37.7011 106.895 37.2835 107.297 36.9525C108.205 36.1803 109.369 35.7734 110.56 35.811C113.643 35.811 115.206 37.0534 115.525 39.7854H131.638C131.539 37.6176 130.966 35.4977 129.96 33.5747C128.954 31.6516 127.539 29.972 125.815 28.6539C121.978 25.6031 116.861 24.0562 110.603 24.0562C104.762 24.0562 99.9555 25.5994 96.3156 28.6441C94.5483 30.0582 93.1291 31.8585 92.1669 33.9067C91.2047 35.9548 90.7253 38.1962 90.7654 40.4585C90.7242 43.002 91.404 45.5053 92.7262 47.6789C94.1414 49.878 96.0707 51.6998 98.3477 52.9871C100.742 54.4049 103.81 55.5629 107.466 56.429C110.952 57.2549 113.329 58.0487 114.532 58.7888C115.577 59.4336 116.065 60.2109 116.065 61.2349C116.085 61.7467 115.988 62.2563 115.781 62.7252C115.575 63.1941 115.265 63.6099 114.874 63.9413C114.049 64.6545 112.742 65.0163 110.988 65.0163C109.045 65.0163 107.444 64.5446 106.231 63.6135C105.173 62.8032 104.583 61.4948 104.451 59.7392H89.3339C89.4432 62.6872 90.3876 65.5435 92.0573 67.976C93.9587 70.7775 96.5795 73.0158 99.6447 74.4558C103.068 76.0712 106.818 76.879 110.603 76.817C116.712 76.817 121.774 75.3355 125.649 72.4149C129.594 69.4387 131.594 65.5243 131.594 60.7793C131.594 53.8395 127.905 48.9662 120.628 46.2942" fill="#0ECCA7"/>
<path d="M60.2014 35.8698C65.8943 35.8698 70.5095 39.9969 70.5095 45.0886H49.8929C49.8929 39.9969 54.508 35.8698 60.2014 35.8698ZM69.3116 59.7391C67.5806 62.6564 64.1514 64.6445 60.2014 64.6445C54.508 64.6445 49.8929 60.5173 49.8929 55.4256L86.7766 55.4247C86.8921 54.1073 86.9501 52.7891 86.9506 51.4702C87.0034 46.6478 85.8046 41.894 83.4712 37.6728C81.2072 33.5669 77.889 30.1385 73.8583 27.7406C69.777 25.2863 65.0948 24.0109 60.3319 24.0559C55.611 24.0023 50.9596 25.1959 46.8485 27.5161C42.8342 29.7858 39.4997 33.0865 37.1903 37.0767C34.8808 41.0669 33.6803 45.6014 33.7129 50.211C33.6717 54.9093 34.888 59.5332 37.2357 63.6037C39.5612 67.6606 42.9277 71.0239 46.9877 73.3466C51.0477 75.6692 55.6542 76.8671 60.3319 76.8166C66.595 76.8166 72.0463 75.1089 76.6858 71.6934C80.7903 68.7189 83.866 64.5405 85.4857 59.7388L69.3116 59.7391Z" fill="#0ECCA7"/>
<path d="M2 25.4043V75.4684H17.468V39.7851H32.1261V25.4043H2Z" fill="#0ECCA7"/>
<path d="M71.7775 17.7758C75.8714 17.7758 79.1902 14.4587 79.1902 10.3669C79.1902 6.27508 75.8714 2.95801 71.7775 2.95801C67.6836 2.95801 64.3648 6.27508 64.3648 10.3669C64.3648 14.4587 67.6836 17.7758 71.7775 17.7758Z" fill="#0ECCA7"/>
<path d="M48.8886 17.7694C52.9825 17.7694 56.3013 14.4523 56.3013 10.3605C56.3013 6.26873 52.9825 2.95166 48.8886 2.95166C44.7946 2.95166 41.4759 6.26873 41.4759 10.3605C41.4759 14.4523 44.7946 17.7694 48.8886 17.7694Z" fill="#0ECCA7"/>
<path d="M98.0107 92.331H104.873C105.381 94.7441 107.16 96.9036 110.337 96.9036C113.514 96.9036 115.42 94.9985 115.42 92.331C115.42 89.6634 113.514 88.013 110.845 88.013C109.392 88.044 107.964 88.3906 106.658 89.0288L103.221 85.4725L108.558 75.8198H116.965L112.391 81.7681C118.139 81.7681 123.553 85.0915 123.553 92.8391C123.553 98.8369 117.58 103 110.718 103C103.348 103 98.5191 98.6818 98.0107 92.331Z" fill="#0ECCA7"/>
<path d="M234.5 17.6776H226.114L217.59 8.94503L208.577 17.6776H200.444L213.347 0.911133H221.48L234.5 17.6776Z" fill="#0ECCA7"/>
<path d="M217.211 97.9618C221.305 97.9618 224.624 94.6447 224.624 90.5529C224.624 86.4611 221.305 83.144 217.211 83.144C213.117 83.144 209.799 86.4611 209.799 90.5529C209.799 94.6447 213.117 97.9618 217.211 97.9618Z" fill="#0ECCA7"/>
<path d="M387.429 0.927246H395.816C396.706 5.88112 399.138 9.65355 404.221 9.65355C409.558 9.65355 412.336 6.00762 413.353 0.927246H421.486C420.977 10.5803 413.353 17.6931 404.203 17.6931C395.053 17.6931 387.937 10.5803 387.429 0.927246Z" fill="#0ECCA7"/>
<path d="M23.9828 144L16.9828 131.8C20.5428 130.72 22.7828 128 22.7828 124.04C22.7828 119.2 19.4228 116 13.9828 116H3.62281V144H7.74281V132.56H12.9428L19.4228 144H23.9828ZM7.74281 119.64H13.4228C16.6228 119.64 18.5828 121.32 18.5828 124.24C18.5828 127 16.7028 128.92 13.4228 128.92H7.74281V119.64ZM45.4025 133.72C45.4025 126.84 41.1225 123.6 36.2425 123.6C30.8025 123.6 26.5225 127.68 26.5225 134.2C26.5225 140.36 30.6425 144.4 36.4025 144.4C41.1225 144.4 44.4825 142 45.3225 138H41.4025C40.7625 140.04 38.9225 141.08 36.4025 141.08C32.8825 141.08 30.7225 138.6 30.5225 135.04H45.3225C45.3625 134.52 45.4025 134.12 45.4025 133.72ZM36.2425 126.92C39.3225 126.92 41.4025 129.08 41.4425 132.16H30.5625C30.9625 129.24 33.0825 126.92 36.2425 126.92ZM60.1378 123.6C56.7778 123.6 54.8178 125.32 53.8178 126.68H53.5378L53.1778 124H49.8578V152H53.9378V141.68C54.9778 143 57.0578 144.4 60.1378 144.4C65.3778 144.4 69.4178 140.44 69.4178 134.04C69.4178 127.72 65.4978 123.6 60.1378 123.6ZM59.5378 140.84C56.1378 140.84 53.9378 138.08 53.9378 134.04C53.9378 129.92 56.1378 127.16 59.5378 127.16C62.9778 127.16 65.3378 129.92 65.3378 134.04C65.3378 138.08 62.9778 140.84 59.5378 140.84ZM83.0506 144.4C88.9306 144.4 93.3306 140.04 93.3306 134C93.3306 127.96 88.9306 123.6 83.0506 123.6C77.1706 123.6 72.8506 127.92 72.8506 134C72.8506 140 77.2106 144.4 83.0506 144.4ZM83.0506 140.84C79.3306 140.84 76.8906 137.72 76.8906 134C76.8906 130.24 79.3306 127.16 83.0506 127.16C86.7706 127.16 89.2906 130.24 89.2906 134C89.2906 137.72 86.7706 140.84 83.0506 140.84ZM97.6703 144H101.75V133.92C101.75 130.48 103.35 127.56 107.15 127.56C107.83 127.56 108.47 127.6 109.11 127.68V123.6H107.83C104.51 123.6 103.11 124.92 102.03 126.8H101.75L101.35 124H97.6703V144ZM121.059 144.4C122.379 144.4 123.419 144.16 124.179 143.96V140.8C123.579 141 122.859 141.12 122.219 141.12C120.099 141.12 119.619 139.92 119.619 138.6V127.28H124.699V124H119.619V118.56H115.899V121C115.899 123.16 115.019 124 112.659 124H111.259V127.28H115.579V139.16C115.579 141.44 116.379 144.4 121.059 144.4ZM130.257 121.04C131.657 121.04 132.817 119.84 132.817 118.44C132.817 117 131.657 115.88 130.257 115.88C128.817 115.88 127.617 117 127.617 118.44C127.617 119.84 128.817 121.04 130.257 121.04ZM128.217 144H132.297V124H128.217V144ZM137.397 144H141.477V132.8C141.477 128.84 143.837 127.16 146.437 127.16C148.997 127.16 150.997 128.8 150.997 132.48V144H155.077V131.6C155.077 126.44 152.037 123.6 147.597 123.6C144.517 123.6 142.877 124.88 141.757 126.4H141.477L141.077 124H137.397V144ZM177.828 124.28L175.668 121.96C174.868 123 173.588 124.12 172.348 124.76C171.068 124 169.508 123.6 167.748 123.6C162.988 123.6 159.948 126.56 159.948 130.48C159.948 132.52 160.748 134.2 162.108 135.36C160.708 136.12 159.508 137.36 159.508 139.16C159.508 140.88 160.468 142.2 161.988 142.84L158.788 145.6C159.148 149.28 161.988 152.4 168.068 152.4C173.388 152.4 177.028 150 177.028 145.76C177.028 142.24 174.508 140.04 169.948 140.04H165.988C164.348 140.04 163.188 139.48 163.188 138.32C163.188 137.6 163.588 137.08 164.348 136.68C165.388 137.08 166.588 137.28 167.908 137.28C172.348 137.28 175.788 134.72 175.788 130.48C175.788 129.04 175.348 127.72 174.508 126.64C175.908 125.96 177.188 125.04 177.828 124.28ZM167.908 134.2C165.428 134.2 163.828 132.6 163.828 130.48C163.828 128.2 165.428 126.64 167.908 126.64C170.348 126.64 171.868 128.2 171.868 130.48C171.868 132.6 170.348 134.2 167.908 134.2ZM173.108 145.96C173.108 148.24 170.748 149.28 168.068 149.28C164.708 149.28 163.228 147.6 162.748 145.88L165.828 143.28H169.468C171.108 143.28 173.108 143.88 173.108 145.96ZM205.407 129.2V132.56H213.447V134.2C213.447 138.52 209.647 140.6 205.327 140.6C199.487 140.6 196.087 136.24 196.087 130.36C196.087 124.12 199.887 119.48 205.727 119.48C209.447 119.48 211.967 121.4 212.887 124.16H217.407C216.567 119.32 212.407 115.6 205.727 115.6C197.407 115.6 191.807 121.96 191.807 130.4C191.807 138.56 196.847 144.4 204.807 144.4C209.647 144.4 212.367 142.16 213.527 140.96H213.807L214.247 144H217.607V129.2H205.407ZM223.569 144H227.649V115.6H223.569V144ZM242.152 144.4C248.032 144.4 252.432 140.04 252.432 134C252.432 127.96 248.032 123.6 242.152 123.6C236.272 123.6 231.952 127.92 231.952 134C231.952 140 236.312 144.4 242.152 144.4ZM242.152 140.84C238.432 140.84 235.992 137.72 235.992 134C235.992 130.24 238.432 127.16 242.152 127.16C245.872 127.16 248.392 130.24 248.392 134C248.392 137.72 245.872 140.84 242.152 140.84ZM267.091 123.6C264.011 123.6 261.931 125 260.891 126.32V115.6H256.811V144H260.131L260.491 141.32H260.771C261.771 142.68 263.731 144.4 267.091 144.4C272.451 144.4 276.371 140.28 276.371 133.96C276.371 127.56 272.331 123.6 267.091 123.6ZM266.491 140.84C263.091 140.84 260.891 138.08 260.891 133.96C260.891 129.92 263.091 127.16 266.491 127.16C269.931 127.16 272.291 129.92 272.291 133.96C272.291 138.08 269.931 140.84 266.491 140.84ZM298.039 140.92C297.039 140.92 296.519 140.4 296.519 139.28V131.08C296.519 126.08 293.079 123.6 288.519 123.6C283.719 123.6 280.759 126.48 280.399 130.44H284.439C284.799 128.36 285.999 126.92 288.519 126.92C290.999 126.92 292.439 128.36 292.439 130.92V131.92L286.319 132.52C282.479 132.88 279.599 134.84 279.599 138.64C279.599 142.56 282.519 144.4 286.399 144.4C289.399 144.4 291.599 143.24 292.959 141.52C293.519 143.4 294.839 144 296.719 144H298.559V140.92H298.039ZM292.439 136.32C292.439 139.92 289.479 141.2 286.999 141.2C285.199 141.2 283.679 140.48 283.679 138.48C283.679 136.56 285.319 135.52 287.679 135.32L292.439 134.84V136.32ZM302.123 144H306.203V115.6H302.123V144ZM341.363 116H321.043V119.8H329.083V144H333.323V119.8H341.363V116ZM360.207 133.72C360.207 126.84 355.927 123.6 351.047 123.6C345.607 123.6 341.327 127.68 341.327 134.2C341.327 140.36 345.447 144.4 351.207 144.4C355.927 144.4 359.287 142 360.127 138H356.207C355.567 140.04 353.727 141.08 351.207 141.08C347.687 141.08 345.527 138.6 345.327 135.04H360.127C360.167 134.52 360.207 134.12 360.207 133.72ZM351.047 126.92C354.127 126.92 356.207 129.08 356.247 132.16H345.367C345.767 129.24 347.887 126.92 351.047 126.92ZM373.83 144.4C378.79 144.4 382.43 141.64 383.15 137.32H379.07C378.31 139.48 376.59 140.84 373.83 140.84C370.07 140.84 367.75 137.96 367.75 134.12C367.75 130.12 370.27 127.16 373.79 127.16C376.59 127.16 378.51 128.88 378.99 130.96H383.07C382.39 126.12 378.31 123.6 373.79 123.6C367.99 123.6 363.71 127.96 363.71 134.12C363.71 140 367.67 144.4 373.83 144.4ZM397.402 123.6C394.322 123.6 392.682 124.88 391.562 126.4H391.282V115.6H387.202V144H391.282V132.8C391.282 128.84 393.642 127.16 396.242 127.16C398.802 127.16 400.802 128.8 400.802 132.48V144H404.882V131.6C404.882 126.44 401.842 123.6 397.402 123.6ZM440.073 136.56C440.073 130.76 434.953 128.96 432.433 128.16L431.113 127.8C428.713 127.04 425.793 126.16 425.793 123.28C425.793 120.88 427.833 119.24 430.753 119.24C433.913 119.24 435.553 121.16 435.833 123.64H439.993C439.793 119 436.233 115.6 430.753 115.6C425.553 115.6 421.593 118.64 421.593 123.48C421.593 128.24 425.473 130.08 428.633 131.08L430.153 131.52C432.753 132.32 435.793 133.36 435.793 136.68C435.793 139.56 433.513 140.76 430.753 140.76C427.273 140.76 425.233 138.96 424.873 135.8H420.713C421.033 141.12 424.553 144.4 430.753 144.4C435.753 144.4 440.073 141.88 440.073 136.56ZM452.426 144.4C453.746 144.4 454.786 144.16 455.546 143.96V140.8C454.946 141 454.226 141.12 453.586 141.12C451.466 141.12 450.986 139.92 450.986 138.6V127.28H456.066V124H450.986V118.56H447.266V121C447.266 123.16 446.386 124 444.026 124H442.626V127.28H446.946V139.16C446.946 141.44 447.746 144.4 452.426 144.4ZM468.129 144.4C474.009 144.4 478.409 140.04 478.409 134C478.409 127.96 474.009 123.6 468.129 123.6C462.249 123.6 457.929 127.92 457.929 134C457.929 140 462.289 144.4 468.129 144.4ZM468.129 140.84C464.409 140.84 461.969 137.72 461.969 134C461.969 130.24 464.409 127.16 468.129 127.16C471.849 127.16 474.369 130.24 474.369 134C474.369 137.72 471.849 140.84 468.129 140.84ZM482.748 144H486.828V133.92C486.828 130.48 488.428 127.56 492.228 127.56C492.908 127.56 493.548 127.6 494.188 127.68V123.6H492.908C489.588 123.6 488.188 124.92 487.108 126.8H486.828L486.428 124H482.748V144ZM499.437 121.04C500.837 121.04 501.997 119.84 501.997 118.44C501.997 117 500.837 115.88 499.437 115.88C497.997 115.88 496.797 117 496.797 118.44C496.797 119.84 497.997 121.04 499.437 121.04ZM497.397 144H501.477V124H497.397V144ZM524.66 133.72C524.66 126.84 520.38 123.6 515.5 123.6C510.06 123.6 505.78 127.68 505.78 134.2C505.78 140.36 509.9 144.4 515.66 144.4C520.38 144.4 523.74 142 524.58 138H520.66C520.02 140.04 518.18 141.08 515.66 141.08C512.14 141.08 509.98 138.6 509.78 135.04H524.58C524.62 134.52 524.66 134.12 524.66 133.72ZM515.5 126.92C518.58 126.92 520.66 129.08 520.7 132.16H509.82C510.22 129.24 512.34 126.92 515.5 126.92ZM536.324 144.4C540.324 144.4 543.684 142.64 543.684 138.64C543.684 134.84 540.844 133.32 537.764 132.48L536.244 132.08C534.284 131.52 532.644 131 532.644 129.24C532.644 127.6 534.044 126.72 535.804 126.72C537.884 126.72 539.164 127.84 539.364 129.44H543.284C543.084 126.48 540.804 123.6 535.764 123.6C532.004 123.6 528.724 125.72 528.724 129.44C528.724 133.28 531.804 134.36 534.284 135.04L535.844 135.44C537.924 136 539.764 136.76 539.764 138.76C539.764 140.56 538.124 141.28 536.284 141.28C534.084 141.28 532.284 140.36 532.044 137.8H528.124C528.324 141.72 531.004 144.4 536.324 144.4Z" fill="black"/>
</svg>
